<svg width="72" height="72" viewBox="0 0 72 72" fill="none" xmlns="http://www.w3.org/2000/svg">
<path fill-rule="evenodd" clip-rule="evenodd" d="M30.0123 31.4907C30.666 31.4907 31.195 32.0203 31.195 32.6735V63.8685C31.195 64.5217 30.666 65.0513 30.0123 65.0513H4.8788C4.22563 65.0513 3.69604 64.5217 3.69604 63.8685V32.6735C3.69604 32.0203 4.22563 31.4907 4.8788 31.4907H30.0123ZM6.06155 62.6858H28.8295V33.8562H6.06155V62.6858Z" fill="black"/>
<path d="M18.6357 66.0862H16.265C15.6113 66.0862 15.0823 66.6158 15.0823 67.2689C15.0823 67.9221 15.6113 68.4517 16.265 68.4517H18.6357C19.2889 68.4517 19.8185 67.9221 19.8185 67.2689C19.8185 66.6158 19.2889 66.0862 18.6357 66.0862Z" fill="black"/>
<path fill-rule="evenodd" clip-rule="evenodd" d="M68.3292 -2.11829e-05H52.2986C50.3206 -2.11829e-05 48.6406 1.54541 48.6406 3.5234V9.75768H12.2923C8.60201 9.76865 5.61683 12.7642 5.61799 16.454V27.7946H4.89378C2.16791 27.7946 -8.34844e-05 30.062 -8.34844e-05 32.7907V66.9588C-0.00759118 68.2594 0.50582 69.5092 1.42638 70.4286C2.34636 71.348 3.59611 71.8608 4.89667 71.8521H30.9825C32.0497 71.8614 33.0736 71.434 33.8181 70.6694C34.5607 69.9036 35.0389 68.9316 34.8911 67.8713V62.0944H62.4669C66.1664 62.0881 69.1689 59.0983 69.1909 55.3981V51.169C69.1736 50.5049 68.6318 49.9747 67.9677 49.9712H66.234V38.4394H68.3292C70.3072 38.4394 71.8521 36.7606 71.8521 34.7826V3.5234C71.863 2.58552 71.4957 1.68344 70.8322 1.01987C70.1692 0.356883 69.2665 -0.010994 68.3292 -2.11829e-05ZM51.0061 7.68786H69.4866V28.8295H51.0061V7.68786ZM68.3292 2.36548H52.2986C51.6252 2.36548 51.0061 2.85002 51.0061 3.5234V5.32236H69.4866V3.5234C69.4987 3.21327 69.3803 2.91181 69.1609 2.69178C68.9408 2.47232 68.6394 2.35393 68.3292 2.36548ZM7.98349 16.454C7.9806 14.07 9.90777 12.133 12.2923 12.1232H48.6406V15.5236H12.2196C11.5664 15.5236 11.0882 16.1179 11.0882 16.771V27.7946H7.98349V16.454ZM30.9825 69.4866C31.4208 69.5005 31.8453 69.333 32.156 69.0235C32.4413 68.7249 32.5885 68.3212 32.5625 67.9094C32.5625 67.9034 32.5536 67.9014 32.5446 67.8993C32.5357 67.8973 32.5267 67.8953 32.5267 67.8892V32.7907C32.5267 31.3654 31.4272 30.1601 29.9984 30.1601H4.89667C3.47136 30.1601 2.36542 31.3654 2.36542 32.7942V66.9554C2.35676 67.6305 2.62126 68.2796 3.09829 68.7567C3.57589 69.2331 4.2256 69.4965 4.90071 69.4866H30.9825ZM30.0018 27.7946H13.4537V17.8891H48.6406V34.7826C48.6706 36.7906 50.2911 38.4105 52.2986 38.4394H58.3983V49.9712H43.9962C43.6653 49.9741 43.35 50.115 43.1265 50.3599L42.0101 51.5536C41.19 52.4349 40.0391 52.9333 38.8349 52.9281H34.8911V32.7873C34.8911 30.062 32.7306 27.7946 30.0018 27.7946ZM62.4669 59.7289C64.8607 59.7237 66.8046 57.7925 66.8254 55.3981V52.3367H44.5148L43.7496 53.1533C42.4814 54.5209 40.6997 55.2965 38.8349 55.2936H34.8911V59.7289H62.4669ZM63.8685 49.9712H60.7638V38.4394H63.8685V49.9712ZM52.2986 36.0739H68.3292C69.0026 36.0739 69.4866 35.4565 69.4866 34.7826V31.1951H51.0061V34.7826C51.0344 35.4843 51.5975 36.0468 52.2986 36.0739Z" fill="black"/>
<path d="M61.9467 32.23H58.8419C58.1888 32.23 57.6592 32.7596 57.6592 33.4127C57.6592 34.0659 58.1888 34.5955 58.8419 34.5955H61.9467C62.6004 34.5955 63.1294 34.0659 63.1294 33.4127C63.1294 32.7596 62.6004 32.23 61.9467 32.23Z" fill="black"/>
</svg>
